<svg xmlns="http://www.w3.org/2000/svg" viewBox="0 0 145.48 42.23"><defs><style>.cls-1{fill:#fff;}.cls-2{fill:#1cc97a;}.cls-3{fill:#8eedc2;}</style></defs><title>资源 37</title><g id="图层_2" data-name="图层 2"><g id="Layer_1" data-name="Layer 1"><path class="cls-1" d="M13,11a11.26,11.26,0,0,1,4.84,1.1,4.72,4.72,0,0,0,1.53.52,5.56,5.56,0,0,0,1-.16,2.57,2.57,0,0,1,.5-.05,2,2,0,0,1,1.56.82A7.51,7.51,0,0,1,24,18.2a3.42,3.42,0,0,1-1.42,3.05,3.11,3.11,0,0,1-1.74.51,2.44,2.44,0,0,1-1.43-.38A3.67,3.67,0,0,1,18.39,20a15.62,15.62,0,0,0-1.2-1.95A5.57,5.57,0,0,0,16.05,17a6,6,0,0,0-3.49-1.17,3.45,3.45,0,0,0-2.81,1.28,5.3,5.3,0,0,0-1,3.43A10.19,10.19,0,0,0,10.21,26,6.44,6.44,0,0,0,16,29.25a8.5,8.5,0,0,0,2.76-.46,5.62,5.62,0,0,0,2.12-1.2A1.81,1.81,0,0,1,22,27a1.3,1.3,0,0,1,1,.56,2.17,2.17,0,0,1,.42,1.35,5.19,5.19,0,0,1-.6,2.23,5.72,5.72,0,0,1-1.44,1.94,3.71,3.71,0,0,1-1.5.52,7.65,7.65,0,0,0-1.73.63,12,12,0,0,1-5.29,1.22,13.77,13.77,0,0,1-5.73-1.28,11.74,11.74,0,0,1-5.24-4.59A11.66,11.66,0,0,1,0,23.26a11.27,11.27,0,0,1,2.37-7,13.24,13.24,0,0,1,5.38-4.18A13,13,0,0,1,13,11Z"/><path class="cls-1" d="M34.39,18.29a9.48,9.48,0,0,1,5.52,1.64,8.8,8.8,0,0,1,2.73,3,8.44,8.44,0,0,1,1.07,4.09,7.78,7.78,0,0,1-3.42,6.34,12,12,0,0,1-7.48,2.49,9.42,9.42,0,0,1-6.65-2.34,7.64,7.64,0,0,1-2.48-5.91,8.31,8.31,0,0,1,3-6.63A11.4,11.4,0,0,1,34.39,18.29Zm-1.38,4a1.5,1.5,0,0,0-1.21.56,2.32,2.32,0,0,0-.45,1.49,14.57,14.57,0,0,0,.38,2.81,22.11,22.11,0,0,0,.92,3.15,1.84,1.84,0,0,0,1.74,1.41c1,0,1.53-.65,1.53-1.94a16,16,0,0,0-.39-3.28,13.27,13.27,0,0,0-.93-3A1.85,1.85,0,0,0,33,22.26Z"/><path class="cls-1" d="M64.19,13.34V29a8.17,8.17,0,0,0,.11,1.71,1.41,1.41,0,0,0,.63.74,3.17,3.17,0,0,1,.83.76A1.44,1.44,0,0,1,66,33c0,.92-.93,1.62-2.77,2.1a20.25,20.25,0,0,1-5,.63,1.07,1.07,0,0,1-.71-.16,1.35,1.35,0,0,1-.21-.78c-.06-.59-.27-.88-.62-.88a1.76,1.76,0,0,0-.91.52,6,6,0,0,1-3.9,1.42,6.9,6.9,0,0,1-4.8-2,9.77,9.77,0,0,1-2-2.74,8.9,8.9,0,0,1-1-4.07,9,9,0,0,1,1.34-4.67,8.37,8.37,0,0,1,3.37-3.2,7.6,7.6,0,0,1,3.52-.93,7.23,7.23,0,0,1,3.58.89.86.86,0,0,0,.41.14c.37,0,.55-.49.55-1.48a1.43,1.43,0,0,0-.3-1,2.45,2.45,0,0,0-1.07-.57c-.73-.23-1.09-.63-1.09-1.21,0-.83.83-1.48,2.5-1.95a27.71,27.71,0,0,1,5.89-1.23C63.7,11.93,64.19,12.41,64.19,13.34ZM54.86,22a2,2,0,0,0-1.77,1.18,8.53,8.53,0,0,0-.88,4.16,6.11,6.11,0,0,0,.84,3.53,1.9,1.9,0,0,0,1.63.86,1.73,1.73,0,0,0,1.63-1.3,12.44,12.44,0,0,0,.51-4.19,6.92,6.92,0,0,0-.61-3.52A1.6,1.6,0,0,0,54.86,22Z"/><path class="cls-1" d="M80.52,25.21,73,28c-.34.13-.45.33-.34.62a2.77,2.77,0,0,0,1.86,1.56,4,4,0,0,0,2.79,0,6.1,6.1,0,0,0,1.6-.93A5.87,5.87,0,0,0,80.15,28a1.82,1.82,0,0,1,.73-.71,1.17,1.17,0,0,1,1,.22,1.88,1.88,0,0,1,.8.91,3.17,3.17,0,0,1-.63,2.78,10.18,10.18,0,0,1-5.2,4.1,8.93,8.93,0,0,1-6.41.13,8.62,8.62,0,0,1-2.7-1.65,8.83,8.83,0,0,1-2.37-3.49,8.43,8.43,0,0,1-.15-5.48,9.14,9.14,0,0,1,2.58-4.12,9.6,9.6,0,0,1,3.3-2A8.53,8.53,0,0,1,77,18.47a7.31,7.31,0,0,1,2.5,1.42,5.61,5.61,0,0,1,1.73,2.36,3.25,3.25,0,0,1,.2,1.88A1.38,1.38,0,0,1,80.52,25.21Zm-8.27-.36,1.63-.61a.93.93,0,0,0,.68-1.33,2.17,2.17,0,0,0-1-1.23,1.91,1.91,0,0,0-2.66,1.17,2.35,2.35,0,0,0,0,1.51.9.9,0,0,0,.48.59A1.41,1.41,0,0,0,72.25,24.85Z"/><path class="cls-1" d="M92.65,19.79V35a13.67,13.67,0,0,1-.36,3.57,3.94,3.94,0,0,1-1.23,2,7,7,0,0,1-2.33,1.2,9.72,9.72,0,0,1-2.92.45A5.39,5.39,0,0,1,83,41.56a1.92,1.92,0,0,1-1.12-1.66,1.06,1.06,0,0,1,.32-.78A1,1,0,0,1,83,38.8a3.16,3.16,0,0,1,.55.05l.43,0a.74.74,0,0,0,.56-.29,1,1,0,0,0,.25-.66,3.89,3.89,0,0,0,0-.48,6.38,6.38,0,0,1-.12-1.18V25.37a2.27,2.27,0,0,0-.27-1.2,1.84,1.84,0,0,0-.92-.69c-.65-.26-1-.65-1-1.18a2,2,0,0,1,.79-1.57,7.55,7.55,0,0,1,2.58-1.23,27.26,27.26,0,0,1,3.09-.74,16.41,16.41,0,0,1,2.7-.35,1,1,0,0,1,.84.31A1.8,1.8,0,0,1,92.65,19.79ZM89,12a4.37,4.37,0,0,1,2.37.56,1.69,1.69,0,0,1,.88,1.5,2.35,2.35,0,0,1-1.33,2.1,9.9,9.9,0,0,1-5.06,1.22,3.7,3.7,0,0,1-2-.48,2,2,0,0,1-1-1.72c0-1,.7-1.76,2.11-2.32A10.91,10.91,0,0,1,89,12Z"/><path class="cls-1" d="M104.14,18.29a9.48,9.48,0,0,1,5.52,1.64,8.6,8.6,0,0,1,2.73,3,8.44,8.44,0,0,1,1.07,4.09A7.75,7.75,0,0,1,110,33.4a12,12,0,0,1-7.48,2.49,9.46,9.46,0,0,1-6.65-2.34,7.63,7.63,0,0,1-2.47-5.91,8.33,8.33,0,0,1,3-6.63A11.4,11.4,0,0,1,104.14,18.29Zm-1.37,4a1.49,1.49,0,0,0-1.21.56,2.32,2.32,0,0,0-.46,1.49,14,14,0,0,0,.39,2.81,20.88,20.88,0,0,0,.92,3.15,1.82,1.82,0,0,0,1.73,1.41c1,0,1.54-.65,1.54-1.94a16,16,0,0,0-.39-3.28,13.23,13.23,0,0,0-.94-3A1.83,1.83,0,0,0,102.77,22.26Z"/><path class="cls-1" d="M129.23,26.77,127,33a23.48,23.48,0,0,1-1.69,3.78,11.34,11.34,0,0,1-1.93,2.51A7.53,7.53,0,0,1,118,41.43a6.2,6.2,0,0,1-4.13-1.34,3.31,3.31,0,0,1-1.22-2.63,3.1,3.1,0,0,1,.85-2.23,2.76,2.76,0,0,1,2.09-.9,2.57,2.57,0,0,1,2,.82,2.51,2.51,0,0,1,.48.67c.08.2.2.63.37,1.29a.84.84,0,0,0,.85.76,1.12,1.12,0,0,0,.9-.46,1.84,1.84,0,0,0,.36-1.16,7.75,7.75,0,0,0-.89-2.7l-4.15-8.81a7.66,7.66,0,0,0-1-1.72,4.76,4.76,0,0,0-1.44-.84,1.21,1.21,0,0,1-.59-.54,1.46,1.46,0,0,1-.25-.79c0-1,1-1.71,3-2.07a25.58,25.58,0,0,1,4.62-.37,8.76,8.76,0,0,1,2.87.38,1.77,1.77,0,0,1,1.41,1.7,1.93,1.93,0,0,1-.39,1,1.79,1.79,0,0,0-.38,1,2.33,2.33,0,0,0,.18.86c.12.29.38.8.76,1.51s.82,1.2,1.16,1.2.72-.35,1.1-1a4.43,4.43,0,0,0,.56-2,1.88,1.88,0,0,0-.43-1.29,2.29,2.29,0,0,1-.65-1.32c0-.59.39-1.06,1.17-1.4a7.74,7.74,0,0,1,3.13-.53c2.43,0,3.64.59,3.64,1.75a1.42,1.42,0,0,1-.37,1,3.63,3.63,0,0,1-1.35.73,2.6,2.6,0,0,0-1.3,1A19.6,19.6,0,0,0,129.23,26.77Z"/><path class="cls-2" d="M134.23,16.13c.4-.22.41-4.57.41-4.57s5-2.07,3.19.41a32.78,32.78,0,0,1-3.6,4.16"/><path class="cls-1" d="M145.33,0c-.82-.46-20.18,9.29-19.69,10.47S140.4,13.05,142.31,13C143.3,13,146.16.47,145.33,0Z"/><path class="cls-3" d="M134.23,16.13c-.31.22-1.92-3-2.18-4.07S141.83,3,142.2,3s-7.45,8.4-7.53,9.35c0,0-.13,3.52-.44,3.74"/></g></g></svg>